<svg width="179" height="116" viewBox="0 0 179 116" fill="none" xmlns="http://www.w3.org/2000/svg">
<path d="M32.3106 41.0408C31.0506 44.1208 29.2773 46.5008 26.9906 48.1808C24.704 49.8608 21.274 50.7008 16.7006 50.7008C10.9606 50.7008 6.80729 48.9508 4.24062 45.4508C1.67396 41.9041 0.390625 36.3974 0.390625 28.9308V22.0708C0.390625 14.6041 1.67396 9.12078 4.24062 5.62078C6.80729 2.07412 10.9606 0.300781 16.7006 0.300781C21.274 0.300781 24.704 1.14078 26.9906 2.82078C29.2773 4.50078 31.0506 6.88078 32.3106 9.96078L30.4206 10.8708C29.3473 8.16411 27.8306 6.08745 25.8706 4.64078C23.9106 3.14745 20.854 2.40078 16.7006 2.40078C14.414 2.40078 12.454 2.70412 10.8206 3.31078C9.18729 3.87078 7.71729 4.85078 6.41062 6.25078C5.10396 7.65078 4.12396 9.68078 3.47062 12.3408C2.81729 14.9541 2.49063 18.1974 2.49063 22.0708V28.9308C2.49063 32.8041 2.81729 36.0708 3.47062 38.7308C4.12396 41.3441 5.10396 43.3508 6.41062 44.7508C7.71729 46.1508 9.18729 47.1541 10.8206 47.7608C12.454 48.3208 14.414 48.6008 16.7006 48.6008C20.854 48.6008 23.9106 47.8774 25.8706 46.4308C27.8306 44.9375 29.3473 42.8374 30.4206 40.1308L32.3106 41.0408Z" fill="white"/>
<path d="M70.2446 45.4508C67.6779 48.9508 63.5246 50.7008 57.7846 50.7008C52.0446 50.7008 47.8913 48.9508 45.3246 45.4508C42.7579 41.9041 41.4746 36.3974 41.4746 28.9308V22.0708C41.4746 14.6041 42.7579 9.12078 45.3246 5.62078C47.8913 2.07412 52.0446 0.300781 57.7846 0.300781C63.5246 0.300781 67.6779 2.07412 70.2446 5.62078C72.8113 9.12078 74.0946 14.6041 74.0946 22.0708V28.9308C74.0946 36.3974 72.8113 41.9041 70.2446 45.4508ZM63.6646 3.31078C62.0313 2.70412 60.0713 2.40078 57.7846 2.40078C55.4979 2.40078 53.5379 2.70412 51.9046 3.31078C50.2713 3.87078 48.8013 4.85078 47.4946 6.25078C46.1879 7.65078 45.2079 9.68078 44.5546 12.3408C43.9013 14.9541 43.5746 18.1974 43.5746 22.0708V28.9308C43.5746 32.8041 43.9013 36.0708 44.5546 38.7308C45.2079 41.3441 46.1879 43.3508 47.4946 44.7508C48.8013 46.1508 50.2713 47.1541 51.9046 47.7608C53.5379 48.3208 55.4979 48.6008 57.7846 48.6008C60.0713 48.6008 62.0313 48.3208 63.6646 47.7608C65.2979 47.1541 66.7679 46.1508 68.0746 44.7508C69.3813 43.3508 70.3613 41.3441 71.0146 38.7308C71.6679 36.0708 71.9946 32.8041 71.9946 28.9308V22.0708C71.9946 18.1974 71.6679 14.9541 71.0146 12.3408C70.3613 9.68078 69.3813 7.65078 68.0746 6.25078C66.7679 4.85078 65.2979 3.87078 63.6646 3.31078Z" fill="white"/>
<path d="M84.9528 13.1108C84.9528 8.58412 86.0961 5.31745 88.3828 3.31078C90.6695 1.30411 94.3795 0.300781 99.5128 0.300781C103.106 0.300781 105.999 1.23412 108.193 3.10078C110.386 4.96745 111.973 7.81411 112.953 11.6408L106.443 16.5408H103.013L110.573 10.8708C109.593 7.74411 108.169 5.55078 106.303 4.29078C104.483 3.03078 102.219 2.40078 99.5128 2.40078C97.6461 2.40078 96.0595 2.51745 94.7528 2.75078C93.4928 2.98412 92.2095 3.45078 90.9028 4.15078C89.6428 4.80411 88.6861 5.87745 88.0328 7.37078C87.3795 8.86412 87.0528 10.7774 87.0528 13.1108C87.0528 15.1641 87.9861 16.9841 89.8528 18.5708C91.7661 20.1574 94.0761 21.5108 96.7828 22.6308C99.4895 23.7508 102.196 24.8941 104.903 26.0608C107.656 27.2275 109.966 28.7208 111.833 30.5408C113.746 32.3608 114.703 34.4608 114.703 36.8408C114.703 41.5075 113.536 44.9841 111.203 47.2708C108.916 49.5574 104.973 50.7008 99.3728 50.7008C94.7995 50.7008 91.2061 49.7908 88.5928 47.9708C85.9795 46.1041 84.1828 43.2341 83.2028 39.3608L85.1628 38.5208C86.0961 42.3008 87.6828 44.9375 89.9228 46.4308C92.2095 47.8774 95.3595 48.6008 99.3728 48.6008C103.853 48.6008 107.166 47.7374 109.313 46.0108C111.506 44.2841 112.603 41.2274 112.603 36.8408C112.603 34.7874 111.646 32.9674 109.733 31.3808C107.866 29.7941 105.556 28.4408 102.803 27.3208C100.096 26.2008 97.3895 25.0574 94.6828 23.8908C91.9762 22.7241 89.6661 21.2308 87.7528 19.4108C85.8861 17.5908 84.9528 15.4908 84.9528 13.1108Z" fill="white"/>
<path d="M131.681 47.9008H159.261V5.97078L143.511 39.7108L127.761 5.90078V50.0008L125.661 49.9308V0.930781H127.761L143.511 34.7408L159.261 1.00078L161.361 0.930781V50.0008L131.681 49.9308V47.9008Z" fill="white"/>
<path d="M177.322 50.0008H175.222V1.00078H177.322V50.0008Z" fill="white"/>
<path d="M88.3106 106.041C87.0506 109.121 85.2773 111.501 82.9906 113.181C80.704 114.861 77.274 115.701 72.7006 115.701C66.9606 115.701 62.8073 113.951 60.2406 110.451C57.674 106.904 56.3906 101.397 56.3906 93.9308V87.0708C56.3906 79.6041 57.674 74.1208 60.2406 70.6208C62.8073 67.0741 66.9606 65.3008 72.7006 65.3008C77.274 65.3008 80.704 66.1408 82.9906 67.8208C85.2773 69.5008 87.0506 71.8808 88.3106 74.9608L86.4206 75.8708C85.3473 73.1641 83.8306 71.0874 81.8706 69.6408C79.9106 68.1475 76.854 67.4008 72.7006 67.4008C70.414 67.4008 68.454 67.7041 66.8206 68.3108C65.1873 68.8708 63.7173 69.8508 62.4106 71.2508C61.104 72.6508 60.124 74.6808 59.4706 77.3408C58.8173 79.9541 58.4906 83.1974 58.4906 87.0708V93.9308C58.4906 97.8041 58.8173 101.071 59.4706 103.731C60.124 106.344 61.104 108.351 62.4106 109.751C63.7173 111.151 65.1873 112.154 66.8206 112.761C68.454 113.321 70.414 113.601 72.7006 113.601C76.854 113.601 79.9106 112.877 81.8706 111.431C83.8306 109.937 85.3473 107.837 86.4206 105.131L88.3106 106.041Z" fill="white"/>
<path d="M126.245 110.451C123.678 113.951 119.525 115.701 113.785 115.701C108.045 115.701 103.891 113.951 101.325 110.451C98.7579 106.904 97.4746 101.397 97.4746 93.9308V87.0708C97.4746 79.6041 98.7579 74.1208 101.325 70.6208C103.891 67.0741 108.045 65.3008 113.785 65.3008C119.525 65.3008 123.678 67.0741 126.245 70.6208C128.811 74.1208 130.095 79.6041 130.095 87.0708V93.9308C130.095 101.397 128.811 106.904 126.245 110.451ZM119.665 68.3108C118.031 67.7041 116.071 67.4008 113.785 67.4008C111.498 67.4008 109.538 67.7041 107.905 68.3108C106.271 68.8708 104.801 69.8508 103.495 71.2508C102.188 72.6508 101.208 74.6808 100.555 77.3408C99.9013 79.9541 99.5746 83.1974 99.5746 87.0708V93.9308C99.5746 97.8041 99.9013 101.071 100.555 103.731C101.208 106.344 102.188 108.351 103.495 109.751C104.801 111.151 106.271 112.154 107.905 112.761C109.538 113.321 111.498 113.601 113.785 113.601C116.071 113.601 118.031 113.321 119.665 112.761C121.298 112.154 122.768 111.151 124.075 109.751C125.381 108.351 126.361 106.344 127.015 103.731C127.668 101.071 127.995 97.8041 127.995 93.9308V87.0708C127.995 83.1974 127.668 79.9541 127.015 77.3408C126.361 74.6808 125.381 72.6508 124.075 71.2508C122.768 69.8508 121.298 68.8708 119.665 68.3108Z" fill="white"/>
<path d="M148.443 112.901H176.023V70.9708L160.273 104.711L144.523 70.9008V115.001L142.423 114.931V65.9308H144.523L160.273 99.7408L176.023 66.0008L178.123 65.9308V115.001L148.443 114.931V112.901Z" fill="white"/>
</svg>
