<svg width="311" height="50" viewBox="0 0 311 50" fill="none" xmlns="http://www.w3.org/2000/svg">
<path d="M31.925 40.4167C30.6648 43.4722 28.8912 45.8333 26.6042 47.5C24.3172 49.1667 20.8866 50 16.3126 50C10.5717 50 6.41768 48.2639 3.85061 44.7917C1.28354 41.2731 0 35.8102 0 28.4028V21.5972C0 14.1898 1.28354 8.75 3.85061 5.27778C6.41768 1.75926 10.5717 0 16.3126 0C20.8866 0 24.3172 0.833334 26.6042 2.5C28.8912 4.16667 30.6648 6.52778 31.925 9.58333L30.0347 10.4861C28.9612 7.80093 27.4443 5.74074 25.484 4.30556C23.5237 2.82408 20.4666 2.08334 16.3126 2.08334C14.0255 2.08334 12.0652 2.38426 10.4316 2.98611C8.79805 3.54167 7.32782 4.51389 6.02095 5.90278C4.71408 7.29167 3.73392 9.30555 3.08049 11.9444C2.42705 14.537 2.10033 17.7546 2.10033 21.5972V28.4028C2.10033 32.2454 2.42705 35.4861 3.08049 38.125C3.73392 40.7176 4.71408 42.7083 6.02095 44.0972C7.32782 45.4861 8.79805 46.4815 10.4316 47.0833C12.0652 47.6389 14.0255 47.9167 16.3126 47.9167C20.4666 47.9167 23.5237 47.1991 25.484 45.7639C27.4443 44.2824 28.9612 42.1991 30.0347 39.5139L31.925 40.4167Z" fill="white"/>
<path d="M69.865 44.7917C67.2979 48.2639 63.1439 50 57.403 50C51.6621 50 47.5081 48.2639 44.9411 44.7917C42.374 41.2731 41.0905 35.8102 41.0905 28.4028V21.5972C41.0905 14.1898 42.374 8.75 44.9411 5.27778C47.5081 1.75926 51.6621 0 57.403 0C63.1439 0 67.2979 1.75926 69.865 5.27778C72.4321 8.75 73.7156 14.1898 73.7156 21.5972V28.4028C73.7156 35.8102 72.4321 41.2731 69.865 44.7917ZM63.284 2.98611C61.6504 2.38426 59.6901 2.08334 57.403 2.08334C55.116 2.08334 53.1557 2.38426 51.5221 2.98611C49.8885 3.54167 48.4183 4.51389 47.1114 5.90278C45.8045 7.29167 44.8244 9.30555 44.171 11.9444C43.5175 14.537 43.1908 17.7546 43.1908 21.5972V28.4028C43.1908 32.2454 43.5175 35.4861 44.171 38.125C44.8244 40.7176 45.8045 42.7083 47.1114 44.0972C48.4183 45.4861 49.8885 46.4815 51.5221 47.0833C53.1557 47.6389 55.116 47.9167 57.403 47.9167C59.6901 47.9167 61.6504 47.6389 63.284 47.0833C64.9176 46.4815 66.3878 45.4861 67.6947 44.0972C69.0015 42.7083 69.9817 40.7176 70.6351 38.125C71.2886 35.4861 71.6153 32.2454 71.6153 28.4028V21.5972C71.6153 17.7546 71.2886 14.537 70.6351 11.9444C69.9817 9.30555 69.0015 7.29167 67.6947 5.90278C66.3878 4.51389 64.9176 3.54167 63.284 2.98611Z" fill="white"/>
<path d="M84.5755 12.7083C84.5755 8.21759 85.719 4.97685 88.0061 2.98611C90.2931 0.99537 94.0037 0 99.1378 0C102.732 0 105.626 0.925926 107.819 2.77778C110.013 4.62963 111.6 7.4537 112.58 11.25L106.069 16.1111H102.638L110.2 10.4861C109.219 7.38426 107.796 5.20833 105.929 3.95833C104.109 2.70833 101.845 2.08334 99.1378 2.08334C97.2709 2.08334 95.684 2.19908 94.3771 2.43056C93.1169 2.66204 91.8333 3.125 90.5265 3.81944C89.2663 4.46759 88.3094 5.53241 87.656 7.01389C87.0026 8.49537 86.6759 10.3935 86.6759 12.7083C86.6759 14.7454 87.6093 16.5509 89.4763 18.125C91.3899 19.6991 93.7003 21.0417 96.4074 22.1528C99.1145 23.2639 101.822 24.3981 104.529 25.5556C107.282 26.713 109.593 28.1944 111.46 30C113.373 31.8056 114.33 33.8889 114.33 36.25C114.33 40.8796 113.163 44.3287 110.83 46.5972C108.543 48.8657 104.599 50 98.9978 50C94.4237 50 90.8298 49.0972 88.2161 47.2917C85.6024 45.4398 83.8054 42.5926 82.8252 38.75L84.7856 37.9167C85.719 41.6667 87.306 44.2824 89.5463 45.7639C91.8333 47.1991 94.9838 47.9167 98.9978 47.9167C103.479 47.9167 106.792 47.0602 108.939 45.3472C111.133 43.6343 112.23 40.6018 112.23 36.25C112.23 34.213 111.273 32.4074 109.359 30.8333C107.492 29.2593 105.182 27.9167 102.428 26.8056C99.7213 25.6944 97.0142 24.5602 94.3071 23.4028C91.6 22.2454 89.2896 20.7639 87.376 18.9583C85.509 17.1528 84.5755 15.0694 84.5755 12.7083Z" fill="white"/>
<path d="M131.311 47.2222H158.896V5.625L143.143 39.0972L127.391 5.55555V49.3055L125.29 49.2361V0.625H127.391L143.143 34.1667L158.896 0.694444L160.996 0.625V49.3055L131.311 49.2361V47.2222Z" fill="white"/>
<path d="M176.959 49.3055H174.859V0.694444H176.959V49.3055Z" fill="white"/>
<path d="M221.174 40.4167C219.913 43.4722 218.14 45.8333 215.853 47.5C213.566 49.1667 210.135 50 205.561 50C199.82 50 195.666 48.2639 193.099 44.7917C190.532 41.2731 189.249 35.8102 189.249 28.4028V21.5972C189.249 14.1898 190.532 8.75 193.099 5.27778C195.666 1.75926 199.82 0 205.561 0C210.135 0 213.566 0.833334 215.853 2.5C218.14 4.16667 219.913 6.52778 221.174 9.58333L219.283 10.4861C218.21 7.80093 216.693 5.74074 214.733 4.30556C212.772 2.82408 209.715 2.08334 205.561 2.08334C203.274 2.08334 201.314 2.38426 199.68 2.98611C198.047 3.54167 196.576 4.51389 195.27 5.90278C193.963 7.29167 192.983 9.30555 192.329 11.9444C191.676 14.537 191.349 17.7546 191.349 21.5972V28.4028C191.349 32.2454 191.676 35.4861 192.329 38.125C192.983 40.7176 193.963 42.7083 195.27 44.0972C196.576 45.4861 198.047 46.4815 199.68 47.0833C201.314 47.6389 203.274 47.9167 205.561 47.9167C209.715 47.9167 212.772 47.1991 214.733 45.7639C216.693 44.2824 218.21 42.1991 219.283 39.5139L221.174 40.4167Z" fill="white"/>
<path d="M259.114 44.7917C256.547 48.2639 252.393 50 246.652 50C240.911 50 236.757 48.2639 234.19 44.7917C231.623 41.2731 230.339 35.8102 230.339 28.4028V21.5972C230.339 14.1898 231.623 8.75 234.19 5.27778C236.757 1.75926 240.911 0 246.652 0C252.393 0 256.547 1.75926 259.114 5.27778C261.681 8.75 262.964 14.1898 262.964 21.5972V28.4028C262.964 35.8102 261.681 41.2731 259.114 44.7917ZM252.533 2.98611C250.899 2.38426 248.939 2.08334 246.652 2.08334C244.365 2.08334 242.404 2.38426 240.771 2.98611C239.137 3.54167 237.667 4.51389 236.36 5.90278C235.053 7.29167 234.073 9.30555 233.42 11.9444C232.766 14.537 232.439 17.7546 232.439 21.5972V28.4028C232.439 32.2454 232.766 35.4861 233.42 38.125C234.073 40.7176 235.053 42.7083 236.36 44.0972C237.667 45.4861 239.137 46.4815 240.771 47.0833C242.404 47.6389 244.365 47.9167 246.652 47.9167C248.939 47.9167 250.899 47.6389 252.533 47.0833C254.166 46.4815 255.636 45.4861 256.943 44.0972C258.25 42.7083 259.23 40.7176 259.884 38.125C260.537 35.4861 260.864 32.2454 260.864 28.4028V21.5972C260.864 17.7546 260.537 14.537 259.884 11.9444C259.23 9.30555 258.25 7.29167 256.943 5.90278C255.636 4.51389 254.166 3.54167 252.533 2.98611Z" fill="white"/>
<path d="M281.315 47.2222H308.9V5.625L293.147 39.0972L277.395 5.55555V49.3055L275.294 49.2361V0.625H277.395L293.147 34.1667L308.9 0.694444L311 0.625V49.3055L281.315 49.2361V47.2222Z" fill="white"/>
</svg>
